G04 #@! TF.GenerationSoftware,KiCad,Pcbnew,(5.1.4)-1*
G04 #@! TF.CreationDate,2021-04-19T09:57:21-05:00*
G04 #@! TF.ProjectId,compactacion,636f6d70-6163-4746-9163-696f6e2e6b69,rev?*
G04 #@! TF.SameCoordinates,Original*
G04 #@! TF.FileFunction,Copper,L1,Top*
G04 #@! TF.FilePolarity,Positive*
%FSLAX46Y46*%
G04 Gerber Fmt 4.6, Leading zero omitted, Abs format (unit mm)*
G04 Created by KiCad (PCBNEW (5.1.4)-1) date 2021-04-19 09:57:21*
%MOMM*%
%LPD*%
G04 APERTURE LIST*
%ADD10C,2.000000*%
%ADD11C,3.000000*%
%ADD12R,3.000000X3.000000*%
%ADD13R,2.000000X2.000000*%
%ADD14C,5.280000*%
%ADD15C,1.500000*%
G04 APERTURE END LIST*
D10*
X48200000Y61250000D03*
X48200000Y63790000D03*
X48200000Y66330000D03*
X48200000Y68870000D03*
X48500000Y32920000D03*
X48500000Y30380000D03*
X48500000Y27840000D03*
X48500000Y25300000D03*
D11*
X27750000Y13650000D03*
X50250000Y13650000D03*
D10*
X45900000Y77500000D03*
X43360000Y77500000D03*
X40820000Y77500000D03*
X38280000Y77500000D03*
X23600000Y26600000D03*
X38840000Y59620000D03*
X23600000Y29140000D03*
X38840000Y57080000D03*
X23600000Y31680000D03*
X38840000Y54540000D03*
X23600000Y34220000D03*
X38840000Y52000000D03*
X23600000Y36760000D03*
X38840000Y49460000D03*
X23600000Y39300000D03*
X38840000Y46920000D03*
X23600000Y41840000D03*
X38840000Y44380000D03*
X23600000Y44380000D03*
X38840000Y41840000D03*
X23600000Y46920000D03*
X38840000Y39300000D03*
X23600000Y49460000D03*
X38840000Y36760000D03*
X23600000Y52000000D03*
X38840000Y34220000D03*
X23600000Y54540000D03*
X38840000Y31680000D03*
X23600000Y57080000D03*
X38840000Y29140000D03*
X23600000Y59620000D03*
X38840000Y26600000D03*
X23600000Y62160000D03*
X38840000Y62160000D03*
D12*
X50550000Y44600000D03*
D11*
X50550000Y39520000D03*
D10*
X3200000Y57790000D03*
X3200000Y42550000D03*
X3000000Y37700000D03*
X3000000Y22460000D03*
X2950000Y18200000D03*
X2950000Y2960000D03*
X29400000Y3500000D03*
X37020000Y3500000D03*
D13*
X10000000Y86400000D03*
D10*
X5000000Y86400000D03*
X3150000Y75600000D03*
X3150000Y60360000D03*
X17150000Y76550000D03*
X17150000Y72050000D03*
X10650000Y76550000D03*
X10650000Y72050000D03*
X10550000Y53700000D03*
X10550000Y58200000D03*
X17050000Y53700000D03*
X17050000Y58200000D03*
X10550000Y34900000D03*
X10550000Y39400000D03*
X17050000Y34900000D03*
X17050000Y39400000D03*
X17200000Y21050000D03*
X17200000Y16550000D03*
X10700000Y21050000D03*
X10700000Y16550000D03*
X25000000Y90000000D03*
X27540000Y90000000D03*
X30080000Y90000000D03*
X32620000Y90000000D03*
X35160000Y90000000D03*
X37700000Y90000000D03*
D14*
X44400000Y2600000D03*
X18250000Y2650000D03*
X18450000Y90600000D03*
X44400000Y90700000D03*
D10*
X34500000Y26950000D03*
X42000000Y14400000D03*
X17050000Y30300000D03*
X46250000Y74200000D03*
X35700000Y44350000D03*
X34100000Y41950000D03*
X8600000Y47100000D03*
X31800000Y34250000D03*
X51250000Y68900000D03*
X42600000Y35650000D03*
X48450000Y35650000D03*
X27100000Y59100000D03*
X26950000Y63750000D03*
X44050000Y54500000D03*
X23550000Y66750000D03*
X42450000Y71000000D03*
X30300000Y74250000D03*
X42450000Y62150000D03*
X43500000Y8350000D03*
X14500000Y49350000D03*
X16950000Y62050000D03*
X33050000Y51400000D03*
X19650000Y41650000D03*
X50700000Y50700000D03*
D15*
X2950000Y22410000D02*
X3000000Y22460000D01*
X2950000Y18200000D02*
X2950000Y22410000D01*
X3200000Y60310000D02*
X3150000Y60360000D01*
X3200000Y57790000D02*
X3200000Y60310000D01*
X2400001Y56990001D02*
X3200000Y57790000D01*
X1249999Y55839999D02*
X2400001Y56990001D01*
X3000000Y22460000D02*
X3000000Y35109998D01*
X46050000Y77350000D02*
X45900000Y77500000D01*
X2200001Y56790001D02*
X3200000Y57790000D01*
X1049999Y55639999D02*
X2200001Y56790001D01*
X1049999Y36763999D02*
X1049999Y55639999D01*
X2704000Y35109998D02*
X1049999Y36763999D01*
X3000000Y35109998D02*
X2704000Y35109998D01*
X5999999Y87399999D02*
X5000000Y86400000D01*
X6950001Y88350001D02*
X5999999Y87399999D01*
X11760001Y88350001D02*
X6950001Y88350001D01*
X13100003Y87009999D02*
X11760001Y88350001D01*
X22009999Y87009999D02*
X13100003Y87009999D01*
X25000000Y90000000D02*
X22009999Y87009999D01*
X45900000Y78914213D02*
X45900000Y77500000D01*
X40809999Y84004214D02*
X45900000Y78914213D01*
X40809999Y89776003D02*
X40809999Y84004214D01*
X38636001Y91950001D02*
X40809999Y89776003D01*
X26603999Y91950001D02*
X38636001Y91950001D01*
X25589999Y90936001D02*
X26603999Y91950001D01*
X25589999Y90289999D02*
X25589999Y90936001D01*
X25300000Y90000000D02*
X25589999Y90289999D01*
X25000000Y90000000D02*
X25300000Y90000000D01*
X45900000Y74550000D02*
X46250000Y74200000D01*
X45900000Y77500000D02*
X45900000Y74550000D01*
X10840000Y30300000D02*
X3000000Y22460000D01*
X17050000Y30300000D02*
X10840000Y30300000D01*
X2013999Y1009999D02*
X6959999Y1009999D01*
X999999Y2023999D02*
X2013999Y1009999D01*
X999999Y13854176D02*
X999999Y2023999D01*
X2950000Y18200000D02*
X2950000Y15804177D01*
X2950000Y15804177D02*
X999999Y13854176D01*
X6959999Y1009999D02*
X13700000Y7750000D01*
X13700000Y7750000D02*
X35300000Y7750000D01*
X40650001Y13100001D02*
X35300000Y7750000D01*
X40700001Y13100001D02*
X40650001Y13100001D01*
X42000000Y14400000D02*
X40700001Y13100001D01*
X42000000Y19450000D02*
X34500000Y26950000D01*
X42000000Y14400000D02*
X42000000Y19450000D01*
X40820000Y76085787D02*
X40820000Y77500000D01*
X40499999Y75765786D02*
X40820000Y76085787D01*
X40499999Y67691646D02*
X40499999Y75765786D01*
X36889999Y64081646D02*
X40499999Y67691646D01*
X36889999Y45539999D02*
X36889999Y64081646D01*
X35700000Y44350000D02*
X36889999Y45539999D01*
X33100001Y42949999D02*
X34100000Y41950000D01*
X33100001Y47200001D02*
X33100001Y42949999D01*
X35000001Y49100001D02*
X33100001Y47200001D01*
X35000001Y64595824D02*
X35000001Y49100001D01*
X38280000Y67875823D02*
X35000001Y64595824D01*
X38280000Y77500000D02*
X38280000Y67875823D01*
X9550001Y57200001D02*
X10550000Y58200000D01*
X3999999Y51649999D02*
X9550001Y57200001D01*
X3999999Y43349999D02*
X3999999Y51649999D01*
X3200000Y42550000D02*
X3999999Y43349999D01*
X10550000Y58200000D02*
X17050000Y58200000D01*
X23600000Y52000000D02*
X23250000Y52000000D01*
X4050000Y42550000D02*
X8600000Y47100000D01*
X3200000Y42550000D02*
X4050000Y42550000D01*
X17000000Y39450000D02*
X10500000Y39450000D01*
X10550000Y53700000D02*
X17050000Y53700000D01*
X10650000Y72050000D02*
X17150000Y72050000D01*
X38840000Y34220000D02*
X38840000Y34540000D01*
X42600000Y35650000D02*
X48450000Y35650000D01*
X46750009Y39800009D02*
X42600000Y35650000D01*
X46750009Y52250009D02*
X46750009Y39800009D01*
X51250000Y56750000D02*
X48975000Y54475000D01*
X51250000Y68900000D02*
X51250000Y56750000D01*
X48975000Y54475000D02*
X46750009Y52250009D01*
X19800000Y30735787D02*
X19800000Y24600000D01*
X21550000Y22850000D02*
X23800000Y22850000D01*
X19800000Y24600000D02*
X21550000Y22850000D01*
X23800000Y22850000D02*
X28400000Y27450000D01*
X28400000Y30850000D02*
X31800000Y34250000D01*
X28400000Y27450000D02*
X28400000Y30850000D01*
X19800000Y23650000D02*
X19800000Y24600000D01*
X17200000Y21050000D02*
X19800000Y23650000D01*
X19800000Y36650000D02*
X19800000Y30735787D01*
X17050000Y39400000D02*
X19800000Y36650000D01*
X17050000Y39400000D02*
X17050000Y53700000D01*
X18149999Y71050001D02*
X17150000Y72050000D01*
X19050000Y70150000D02*
X18149999Y71050001D01*
X19050000Y55700000D02*
X19050000Y70150000D01*
X17050000Y53700000D02*
X19050000Y55700000D01*
X35160000Y67160000D02*
X35160000Y90000000D01*
X27100000Y59100000D02*
X35160000Y67160000D01*
X32620000Y69420000D02*
X32620000Y90000000D01*
X26950000Y63750000D02*
X32620000Y69420000D01*
X37700000Y88585787D02*
X37700000Y90000000D01*
X37700000Y84574213D02*
X37700000Y88585787D01*
X43360000Y78914213D02*
X37700000Y84574213D01*
X43360000Y77500000D02*
X43360000Y78914213D01*
X45049999Y55499999D02*
X44050000Y54500000D01*
X45049999Y71286003D02*
X45049999Y55499999D01*
X43360000Y72976002D02*
X45049999Y71286003D01*
X43360000Y77500000D02*
X43360000Y72976002D01*
X27540000Y70740000D02*
X23550000Y66750000D01*
X27540000Y90000000D02*
X27540000Y70740000D01*
X30080000Y74470000D02*
X30300000Y74250000D01*
X30080000Y90000000D02*
X30080000Y74470000D01*
X42450000Y71000000D02*
X42450000Y62150000D01*
X41870000Y8350000D02*
X37020000Y3500000D01*
X43500000Y8350000D02*
X41870000Y8350000D01*
X10500000Y34950000D02*
X17000000Y34950000D01*
X7750000Y37700000D02*
X10550000Y34900000D01*
X3000000Y37700000D02*
X7750000Y37700000D01*
X14500000Y49200000D02*
X14500000Y49350000D01*
X3000000Y37700000D02*
X14500000Y49200000D01*
X9700000Y75600000D02*
X10650000Y76550000D01*
X3150000Y75600000D02*
X9700000Y75600000D01*
X10650000Y76550000D02*
X17500000Y76550000D01*
X16950000Y62050000D02*
X11650000Y62050000D01*
X3150000Y70550000D02*
X3150000Y75600000D01*
X11650000Y62050000D02*
X3150000Y70550000D01*
X10650000Y16600000D02*
X17150000Y16600000D01*
X3749999Y3759999D02*
X3749999Y14199999D01*
X2950000Y2960000D02*
X3749999Y3759999D01*
X29500000Y47850000D02*
X33050000Y51400000D01*
X29500000Y41500000D02*
X29500000Y47850000D01*
X34000000Y37000000D02*
X29500000Y41500000D01*
X34000000Y29750000D02*
X34000000Y37000000D01*
X8349999Y14199999D02*
X10700000Y16550000D01*
X3749999Y14199999D02*
X8349999Y14199999D01*
X21799999Y17549999D02*
X26225000Y21975000D01*
X18199999Y17549999D02*
X21799999Y17549999D01*
X17200000Y16550000D02*
X18199999Y17549999D01*
X25350000Y21100000D02*
X26225000Y21975000D01*
X26225000Y21975000D02*
X34000000Y29750000D01*
X21350001Y43350001D02*
X20649999Y42649999D01*
X21350001Y52504178D02*
X21350001Y43350001D01*
X21550009Y75035993D02*
X21550009Y52704186D01*
X20649999Y42649999D02*
X19650000Y41650000D01*
X11276013Y85309989D02*
X21550009Y75035993D01*
X21550009Y52704186D02*
X21350001Y52504178D01*
X11090011Y85309989D02*
X11276013Y85309989D01*
X10000000Y86400000D02*
X11090011Y85309989D01*
X51699999Y49700001D02*
X50700000Y50700000D01*
X53000001Y48399999D02*
X51699999Y49700001D01*
X53000001Y22513999D02*
X53000001Y48399999D01*
X35936003Y5450001D02*
X53000001Y22513999D01*
X31350001Y5450001D02*
X35936003Y5450001D01*
X29400000Y3500000D02*
X31350001Y5450001D01*
M02*
