G04 #@! TF.GenerationSoftware,KiCad,Pcbnew,(5.1.4)-1*
G04 #@! TF.CreationDate,2021-02-26T16:34:43-05:00*
G04 #@! TF.ProjectId,compactacion,636f6d70-6163-4746-9163-696f6e2e6b69,rev?*
G04 #@! TF.SameCoordinates,Original*
G04 #@! TF.FileFunction,Copper,L1,Top*
G04 #@! TF.FilePolarity,Positive*
%FSLAX46Y46*%
G04 Gerber Fmt 4.6, Leading zero omitted, Abs format (unit mm)*
G04 Created by KiCad (PCBNEW (5.1.4)-1) date 2021-02-26 16:34:43*
%MOMM*%
%LPD*%
G04 APERTURE LIST*
%ADD10C,2.100000*%
%ADD11R,2.200000X2.200000*%
%ADD12O,2.200000X2.200000*%
%ADD13C,3.000000*%
%ADD14R,2.000000X2.000000*%
%ADD15R,2.200000X4.200000*%
%ADD16C,1.500000*%
G04 APERTURE END LIST*
D10*
X25200000Y92400000D03*
X27740000Y92400000D03*
X30280000Y92400000D03*
X32820000Y92400000D03*
X17000000Y5700000D03*
X24620000Y3160000D03*
X17000000Y3160000D03*
X24620000Y5700000D03*
X10200000Y50570000D03*
X10200000Y48030000D03*
X10200000Y45490000D03*
X10200000Y42950000D03*
X9350000Y71050000D03*
X9350000Y68510000D03*
X9350000Y65970000D03*
X9350000Y63430000D03*
X22250000Y67400000D03*
X37490000Y34380000D03*
X22250000Y64860000D03*
X37490000Y36920000D03*
X22250000Y62320000D03*
X37490000Y39460000D03*
X22250000Y59780000D03*
X37490000Y42000000D03*
X22250000Y57240000D03*
X37490000Y44540000D03*
X22250000Y54700000D03*
X37490000Y47080000D03*
X22250000Y52160000D03*
X37490000Y49620000D03*
X22250000Y49620000D03*
X37490000Y52160000D03*
X22250000Y47080000D03*
X37490000Y54700000D03*
X22250000Y44540000D03*
X37490000Y57240000D03*
X22250000Y42000000D03*
X37490000Y59780000D03*
X22250000Y39460000D03*
X37490000Y62320000D03*
X22250000Y36920000D03*
X37490000Y64860000D03*
X22250000Y34380000D03*
X37490000Y67400000D03*
X22250000Y31840000D03*
X37490000Y31840000D03*
D11*
X47750000Y53800000D03*
D12*
X47750000Y63960000D03*
D10*
X47800000Y92250000D03*
X50340000Y92250000D03*
D13*
X43250000Y25500000D03*
X43250000Y3000000D03*
X18550000Y93800000D03*
X13470000Y93800000D03*
D10*
X4100000Y80100000D03*
X4100000Y82600000D03*
X4100000Y65700000D03*
X4100000Y68200000D03*
X4950000Y49150000D03*
X4950000Y46650000D03*
X42700000Y74250000D03*
X40200000Y74250000D03*
X26150000Y16600000D03*
X26150000Y14060000D03*
X23610000Y16600000D03*
X23610000Y14060000D03*
X21070000Y16600000D03*
X21070000Y14060000D03*
X18530000Y16600000D03*
X18530000Y14060000D03*
X15990000Y16600000D03*
X15990000Y14060000D03*
X13450000Y16600000D03*
X13450000Y14060000D03*
X43400000Y30700000D03*
X43400000Y45940000D03*
X43450000Y64390000D03*
X43450000Y49150000D03*
X33700000Y84500000D03*
X48940000Y84500000D03*
X5550000Y36000000D03*
X5550000Y20760000D03*
X46690000Y80450000D03*
X31450000Y80450000D03*
X35500000Y8400000D03*
X43120000Y8400000D03*
D14*
X49622240Y29032840D03*
X31913360Y29088720D03*
X31659360Y69876040D03*
X49678120Y69886200D03*
D15*
X28974600Y76913560D03*
X22311720Y83733880D03*
X17811720Y83733880D03*
X11037120Y77242600D03*
X11037120Y57798760D03*
X11032040Y37607480D03*
D10*
X43770000Y93100000D03*
X36150000Y90560000D03*
X43770000Y90560000D03*
X36150000Y93100000D03*
X31000000Y24250000D03*
X9900000Y87350000D03*
X31650000Y64400000D03*
X13800000Y63300000D03*
X31850000Y59700000D03*
X8700000Y16800000D03*
X42450000Y70200000D03*
X34200000Y31800000D03*
X21300000Y22200000D03*
X46900000Y8350000D03*
X35550000Y14400000D03*
X33400000Y87650000D03*
X39950000Y79850000D03*
D16*
X30280000Y90915076D02*
X30280000Y92400000D01*
X30280000Y85533138D02*
X30280000Y90915076D01*
X22250000Y77503138D02*
X30280000Y85533138D01*
X22250000Y67400000D02*
X22250000Y77503138D01*
X15761719Y86593881D02*
X17967838Y88800000D01*
X15761719Y70928279D02*
X15761719Y86593881D01*
X21289999Y65399999D02*
X15761719Y70928279D01*
X22150001Y65399999D02*
X21289999Y65399999D01*
X22250000Y64860000D02*
X22250000Y65300000D01*
X22250000Y65300000D02*
X22150001Y65399999D01*
X27740000Y90915076D02*
X27740000Y92400000D01*
X25624924Y88800000D02*
X27740000Y90915076D01*
X17967838Y88800000D02*
X25624924Y88800000D01*
X38820000Y39460000D02*
X37490000Y39460000D01*
X47750000Y53450000D02*
X43450000Y49150000D01*
X47750000Y53800000D02*
X47750000Y53450000D01*
X43450000Y45990000D02*
X43400000Y45940000D01*
X43450000Y49150000D02*
X43450000Y45990000D01*
X43400000Y44455076D02*
X43400000Y45940000D01*
X43400000Y43885076D02*
X43400000Y44455076D01*
X38974924Y39460000D02*
X43400000Y43885076D01*
X37490000Y39460000D02*
X38974924Y39460000D01*
X37030000Y64400000D02*
X37490000Y64860000D01*
X31650000Y64400000D02*
X37030000Y64400000D01*
X21829998Y59780000D02*
X22250000Y59780000D01*
X36150000Y68900000D02*
X31650000Y64400000D01*
X36150000Y90560000D02*
X36150000Y68900000D01*
X46110000Y90560000D02*
X47800000Y92250000D01*
X43770000Y90560000D02*
X46110000Y90560000D01*
X52340001Y93210001D02*
X52340001Y64850001D01*
X51300001Y94250001D02*
X52340001Y93210001D01*
X48315077Y94250001D02*
X51300001Y94250001D01*
X47800000Y93734924D02*
X48315077Y94250001D01*
X47800000Y92250000D02*
X47800000Y93734924D01*
X42980000Y64860000D02*
X43450000Y64390000D01*
X37490000Y64860000D02*
X42980000Y64860000D01*
X47320000Y64390000D02*
X47750000Y63960000D01*
X43450000Y64390000D02*
X47320000Y64390000D01*
X51450000Y63960000D02*
X52340001Y64850001D01*
X47750000Y63960000D02*
X51450000Y63960000D01*
X7865076Y71050000D02*
X9350000Y71050000D01*
X3989998Y71050000D02*
X7865076Y71050000D01*
X2099999Y69160001D02*
X3989998Y71050000D01*
X2099999Y46539999D02*
X2099999Y69160001D01*
X5689998Y42950000D02*
X2099999Y46539999D01*
X10200000Y42950000D02*
X5689998Y42950000D01*
X8850001Y86300001D02*
X9900000Y87350000D01*
X8850001Y73034923D02*
X8850001Y86300001D01*
X9350000Y72534924D02*
X8850001Y73034923D01*
X9350000Y71050000D02*
X9350000Y72534924D01*
X17000000Y3160000D02*
X25190000Y3160000D01*
X17000000Y3160000D02*
X16239998Y3160000D01*
X15515076Y3160000D02*
X2850000Y15825076D01*
X17000000Y3160000D02*
X15515076Y3160000D01*
X2850000Y40110002D02*
X5689998Y42950000D01*
X2850000Y15825076D02*
X2850000Y40110002D01*
X31000000Y22765076D02*
X31000000Y24250000D01*
X31000000Y8055076D02*
X31000000Y22765076D01*
X26104924Y3160000D02*
X31000000Y8055076D01*
X24620000Y3160000D02*
X26104924Y3160000D01*
X9350000Y68510000D02*
X14890000Y68510000D01*
X14890000Y68510000D02*
X18100000Y65300000D01*
X20765076Y57240000D02*
X22250000Y57240000D01*
X18100000Y59905076D02*
X20765076Y57240000D01*
X18100000Y65300000D02*
X18100000Y59905076D01*
X20765076Y54700000D02*
X22250000Y54700000D01*
X16399990Y59065086D02*
X20765076Y54700000D01*
X16399990Y63950010D02*
X16399990Y59065086D01*
X14380000Y65970000D02*
X16399990Y63950010D01*
X9350000Y65970000D02*
X14380000Y65970000D01*
X23734924Y52160000D02*
X22250000Y52160000D01*
X23734924Y52160000D02*
X24350000Y52775076D01*
X29965076Y80450000D02*
X31450000Y80450000D01*
X27601038Y80450000D02*
X29965076Y80450000D01*
X24350000Y77198962D02*
X27601038Y80450000D01*
X24350000Y52775076D02*
X24350000Y77198962D01*
X20765076Y49620000D02*
X22250000Y49620000D01*
X13274924Y49620000D02*
X20765076Y49620000D01*
X11684924Y48030000D02*
X13274924Y49620000D01*
X10200000Y48030000D02*
X11684924Y48030000D01*
X20765076Y47080000D02*
X22250000Y47080000D01*
X13274924Y47080000D02*
X20765076Y47080000D01*
X11684924Y45490000D02*
X13274924Y47080000D01*
X10200000Y45490000D02*
X11684924Y45490000D01*
X33700000Y75626682D02*
X26850000Y68776682D01*
X33700000Y84500000D02*
X33700000Y75626682D01*
X23734924Y44540000D02*
X22250000Y44540000D01*
X26850000Y47655076D02*
X23734924Y44540000D01*
X26850000Y68776682D02*
X26850000Y47655076D01*
X20900899Y42000000D02*
X22250000Y42000000D01*
X13200899Y34300000D02*
X20900899Y42000000D01*
X7250000Y34300000D02*
X13200899Y34300000D01*
X5550000Y36000000D02*
X7250000Y34300000D01*
X31930000Y59780000D02*
X31850000Y59700000D01*
X37490000Y59780000D02*
X31930000Y59780000D01*
X13670000Y63430000D02*
X13800000Y63300000D01*
X9350000Y63430000D02*
X13670000Y63430000D01*
X9350000Y61945076D02*
X8100000Y60695076D01*
X9350000Y63430000D02*
X9350000Y61945076D01*
X8100000Y52670000D02*
X10200000Y50570000D01*
X8100000Y60695076D02*
X8100000Y52670000D01*
X15990000Y18084924D02*
X14900000Y19174924D01*
X15990000Y16600000D02*
X15990000Y18084924D01*
X20765076Y39460000D02*
X22250000Y39460000D01*
X14900000Y33594924D02*
X20765076Y39460000D01*
X14900000Y19174924D02*
X14900000Y33594924D01*
X20765076Y34380000D02*
X22250000Y34380000D01*
X18530000Y32144924D02*
X20765076Y34380000D01*
X18530000Y16600000D02*
X18530000Y32144924D01*
X39650000Y67400000D02*
X42450000Y70200000D01*
X37490000Y67400000D02*
X39650000Y67400000D01*
X42450000Y74000000D02*
X42700000Y74250000D01*
X42450000Y70200000D02*
X42450000Y74000000D01*
X13250000Y16800000D02*
X13450000Y16600000D01*
X8700000Y16800000D02*
X13250000Y16800000D01*
X23610000Y30480000D02*
X22250000Y31840000D01*
X23610000Y16600000D02*
X23610000Y30480000D01*
X21070000Y21970000D02*
X21300000Y22200000D01*
X21070000Y16600000D02*
X21070000Y21970000D01*
X34240000Y31840000D02*
X34200000Y31800000D01*
X37490000Y31840000D02*
X34240000Y31840000D01*
X50340000Y85900000D02*
X50340000Y92250000D01*
X48940000Y84500000D02*
X50340000Y85900000D01*
X46850000Y8400000D02*
X46900000Y8350000D01*
X43120000Y8400000D02*
X46850000Y8400000D01*
X36599999Y25249999D02*
X37950000Y26600000D01*
X36599999Y15449999D02*
X36599999Y25249999D01*
X35550000Y14400000D02*
X36599999Y15449999D01*
X37400000Y26050000D02*
X37950000Y26600000D01*
X37950000Y26600000D02*
X41700000Y30350000D01*
X35550000Y8450000D02*
X35500000Y8400000D01*
X35550000Y14400000D02*
X35550000Y8450000D01*
X41700000Y30484924D02*
X41700000Y30350000D01*
X41915076Y30700000D02*
X41700000Y30484924D01*
X43400000Y30700000D02*
X41915076Y30700000D01*
X32820000Y88230000D02*
X33400000Y87650000D01*
X32820000Y92400000D02*
X32820000Y88230000D01*
X40200000Y79600000D02*
X39950000Y79850000D01*
X40200000Y74250000D02*
X40200000Y79600000D01*
X27634924Y16600000D02*
X26150000Y16600000D01*
X28150001Y16084923D02*
X27634924Y16600000D01*
X28150001Y9230001D02*
X28150001Y16084923D01*
X24620000Y5700000D02*
X28150001Y9230001D01*
X25200000Y93884924D02*
X27315076Y96000000D01*
X25200000Y92400000D02*
X25200000Y93884924D01*
X40870000Y96000000D02*
X43770000Y93100000D01*
X27315076Y96000000D02*
X40870000Y96000000D01*
X16660000Y5700000D02*
X17000000Y5700000D01*
X15515076Y5700000D02*
X17000000Y5700000D01*
X5550000Y15665076D02*
X15515076Y5700000D01*
X5550000Y20760000D02*
X5550000Y15665076D01*
X37634924Y93100000D02*
X36150000Y93100000D01*
X46690000Y84044924D02*
X37634924Y93100000D01*
X46690000Y80450000D02*
X46690000Y84044924D01*
M02*
