G04 #@! TF.GenerationSoftware,KiCad,Pcbnew,(5.1.4)-1*
G04 #@! TF.CreationDate,2021-04-19T09:57:21-05:00*
G04 #@! TF.ProjectId,compactacion,636f6d70-6163-4746-9163-696f6e2e6b69,rev?*
G04 #@! TF.SameCoordinates,Original*
G04 #@! TF.FileFunction,Copper,L2,Bot*
G04 #@! TF.FilePolarity,Positive*
%FSLAX46Y46*%
G04 Gerber Fmt 4.6, Leading zero omitted, Abs format (unit mm)*
G04 Created by KiCad (PCBNEW (5.1.4)-1) date 2021-04-19 09:57:21*
%MOMM*%
%LPD*%
G04 APERTURE LIST*
%ADD10C,2.000000*%
%ADD11C,3.000000*%
%ADD12R,3.000000X3.000000*%
%ADD13R,2.000000X2.000000*%
%ADD14C,5.280000*%
%ADD15C,1.500000*%
G04 APERTURE END LIST*
D10*
X48200000Y61250000D03*
X48200000Y63790000D03*
X48200000Y66330000D03*
X48200000Y68870000D03*
X48500000Y32920000D03*
X48500000Y30380000D03*
X48500000Y27840000D03*
X48500000Y25300000D03*
D11*
X27750000Y13650000D03*
X50250000Y13650000D03*
D10*
X45900000Y77500000D03*
X43360000Y77500000D03*
X40820000Y77500000D03*
X38280000Y77500000D03*
X23600000Y26600000D03*
X38840000Y59620000D03*
X23600000Y29140000D03*
X38840000Y57080000D03*
X23600000Y31680000D03*
X38840000Y54540000D03*
X23600000Y34220000D03*
X38840000Y52000000D03*
X23600000Y36760000D03*
X38840000Y49460000D03*
X23600000Y39300000D03*
X38840000Y46920000D03*
X23600000Y41840000D03*
X38840000Y44380000D03*
X23600000Y44380000D03*
X38840000Y41840000D03*
X23600000Y46920000D03*
X38840000Y39300000D03*
X23600000Y49460000D03*
X38840000Y36760000D03*
X23600000Y52000000D03*
X38840000Y34220000D03*
X23600000Y54540000D03*
X38840000Y31680000D03*
X23600000Y57080000D03*
X38840000Y29140000D03*
X23600000Y59620000D03*
X38840000Y26600000D03*
X23600000Y62160000D03*
X38840000Y62160000D03*
D12*
X50550000Y44600000D03*
D11*
X50550000Y39520000D03*
D10*
X3200000Y57790000D03*
X3200000Y42550000D03*
X3000000Y37700000D03*
X3000000Y22460000D03*
X2950000Y18200000D03*
X2950000Y2960000D03*
X29400000Y3500000D03*
X37020000Y3500000D03*
D13*
X10000000Y86400000D03*
D10*
X5000000Y86400000D03*
X3150000Y75600000D03*
X3150000Y60360000D03*
X17150000Y76550000D03*
X17150000Y72050000D03*
X10650000Y76550000D03*
X10650000Y72050000D03*
X10550000Y53700000D03*
X10550000Y58200000D03*
X17050000Y53700000D03*
X17050000Y58200000D03*
X10550000Y34900000D03*
X10550000Y39400000D03*
X17050000Y34900000D03*
X17050000Y39400000D03*
X17200000Y21050000D03*
X17200000Y16550000D03*
X10700000Y21050000D03*
X10700000Y16550000D03*
X25000000Y90000000D03*
X27540000Y90000000D03*
X30080000Y90000000D03*
X32620000Y90000000D03*
X35160000Y90000000D03*
X37700000Y90000000D03*
D14*
X44400000Y2600000D03*
X18250000Y2650000D03*
X18450000Y90600000D03*
X44400000Y90700000D03*
D10*
X34500000Y26950000D03*
X42000000Y14400000D03*
X17050000Y30300000D03*
X46250000Y74200000D03*
X35700000Y44350000D03*
X34100000Y41950000D03*
X8600000Y47100000D03*
X31800000Y34250000D03*
X51250000Y68900000D03*
X42600000Y35650000D03*
X48450000Y35650000D03*
X27100000Y59100000D03*
X26950000Y63750000D03*
X44050000Y54500000D03*
X23550000Y66750000D03*
X42450000Y71000000D03*
X30300000Y74250000D03*
X42450000Y62150000D03*
X43500000Y8350000D03*
X14500000Y49350000D03*
X16950000Y62050000D03*
X33050000Y51400000D03*
X19650000Y41650000D03*
X50700000Y50700000D03*
D15*
X52049999Y41019999D02*
X50550000Y39520000D01*
X53000001Y41970001D02*
X52049999Y41019999D01*
X53000001Y59799999D02*
X53000001Y41970001D01*
X48200000Y61250000D02*
X51550000Y61250000D01*
X51550000Y61250000D02*
X53000001Y59799999D01*
X50550000Y37398680D02*
X52000000Y35948680D01*
X50550000Y39520000D02*
X50550000Y37398680D01*
X51015000Y25300000D02*
X48500000Y25300000D01*
X52000000Y26285000D02*
X51015000Y25300000D01*
X52000000Y35948680D02*
X52000000Y26285000D01*
X48200000Y61250000D02*
X48546002Y61250000D01*
X48546002Y61250000D02*
X53200001Y65903999D01*
X49300002Y74200000D02*
X53200001Y70300001D01*
X46250000Y74200000D02*
X49300002Y74200000D01*
X53200001Y65903999D02*
X53200001Y70300001D01*
X20970000Y34220000D02*
X23600000Y34220000D01*
X17050000Y30300000D02*
X20970000Y34220000D01*
X48550000Y25250000D02*
X48500000Y25300000D01*
X42000000Y18800000D02*
X48500000Y25300000D01*
X42000000Y14400000D02*
X42000000Y18800000D01*
X36690000Y29140000D02*
X38840000Y29140000D01*
X34500000Y26950000D02*
X36690000Y29140000D01*
X44110000Y63790000D02*
X48200000Y63790000D01*
X25014213Y36760000D02*
X30050000Y41795787D01*
X23600000Y36760000D02*
X25014213Y36760000D01*
X30050000Y41795787D02*
X30050000Y56256002D01*
X30050000Y56256002D02*
X38643998Y64850000D01*
X38643998Y64850000D02*
X43050000Y64850000D01*
X43050000Y64850000D02*
X44110000Y63790000D01*
X28349990Y42635777D02*
X28349990Y44849990D01*
X25014213Y39300000D02*
X28349990Y42635777D01*
X23600000Y39300000D02*
X25014213Y39300000D01*
X28349990Y43949990D02*
X28349990Y44849990D01*
X46785787Y66330000D02*
X48200000Y66330000D01*
X46565777Y66550010D02*
X46785787Y66330000D01*
X37939831Y66550010D02*
X46565777Y66550010D01*
X28349991Y56960169D02*
X37939831Y66550010D01*
X28349990Y44849990D02*
X28349991Y56960169D01*
X38810000Y44350000D02*
X38840000Y44380000D01*
X35700000Y44350000D02*
X38810000Y44350000D01*
X48500000Y30380000D02*
X45985000Y30380000D01*
X38254157Y22649157D02*
X40552500Y24947500D01*
X34900010Y9400010D02*
X38254157Y12754157D01*
X24499990Y9400010D02*
X34900010Y9400010D01*
X22650843Y11249157D02*
X24499990Y9400010D01*
X19699990Y25600010D02*
X22650843Y22649157D01*
X14299990Y25600010D02*
X19699990Y25600010D01*
X22650843Y22649157D02*
X22650843Y11249157D01*
X40552500Y24947500D02*
X39250000Y23645000D01*
X38254157Y12754157D02*
X38254157Y22649157D01*
X45985000Y30380000D02*
X40552500Y24947500D01*
X23600000Y44380000D02*
X16630000Y44380000D01*
X16630000Y44380000D02*
X14250000Y42000000D01*
X14250000Y42000000D02*
X14250000Y25650000D01*
X14250000Y25650000D02*
X14299990Y25600010D01*
X38730000Y41950000D02*
X38840000Y41840000D01*
X34100000Y41950000D02*
X38730000Y41950000D01*
X45849174Y27840000D02*
X48500000Y27840000D01*
X23600000Y46920000D02*
X22185787Y46920000D01*
X39954167Y21944990D02*
X45849174Y27840000D01*
X18995823Y23900000D02*
X12850000Y23900000D01*
X20950833Y21944990D02*
X18995823Y23900000D01*
X12850000Y23900000D02*
X12550000Y24200000D01*
X12550000Y24200000D02*
X12550000Y44250000D01*
X15220000Y46920000D02*
X23600000Y46920000D01*
X12550000Y44250000D02*
X15220000Y46920000D01*
X39954167Y21944990D02*
X39954167Y11954167D01*
X39954167Y11954167D02*
X35700000Y7700000D01*
X35700000Y7700000D02*
X22900000Y7700000D01*
X20950833Y9649167D02*
X20950833Y21944990D01*
X22900000Y7700000D02*
X20950833Y9649167D01*
X23200000Y52400000D02*
X23600000Y52000000D01*
X22185787Y52000000D02*
X23600000Y52000000D01*
X21935786Y51749999D02*
X22185787Y52000000D01*
X13249999Y51749999D02*
X21935786Y51749999D01*
X8600000Y47100000D02*
X13249999Y51749999D01*
X48500000Y35600000D02*
X48450000Y35650000D01*
X48500000Y32920000D02*
X48500000Y35600000D01*
X41170000Y34220000D02*
X42600000Y35650000D01*
X38840000Y34220000D02*
X41170000Y34220000D01*
X51220000Y68870000D02*
X51250000Y68900000D01*
X48200000Y68870000D02*
X51220000Y68870000D01*
X31830000Y34220000D02*
X31800000Y34250000D01*
X38840000Y34220000D02*
X31830000Y34220000D01*
X25080000Y57080000D02*
X27100000Y59100000D01*
X23600000Y57080000D02*
X25080000Y57080000D01*
X25950001Y62750001D02*
X26950000Y63750000D01*
X25950001Y61623999D02*
X25950001Y62750001D01*
X23946002Y59620000D02*
X25950001Y61623999D01*
X23600000Y59620000D02*
X23946002Y59620000D01*
X44010000Y54540000D02*
X44050000Y54500000D01*
X38840000Y54540000D02*
X44010000Y54540000D01*
X44050000Y53085787D02*
X46350000Y50785787D01*
X44050000Y54500000D02*
X44050000Y53085787D01*
X39186002Y26600000D02*
X38840000Y26600000D01*
X46350000Y33763998D02*
X39186002Y26600000D01*
X46350000Y50785787D02*
X46350000Y33763998D01*
X27750000Y15510000D02*
X27750000Y13650000D01*
X38840000Y26600000D02*
X27750000Y15510000D01*
X23550000Y62210000D02*
X23600000Y62160000D01*
X23550000Y66750000D02*
X23550000Y62210000D01*
X37900000Y74250000D02*
X37950000Y74200000D01*
X30300000Y74250000D02*
X37900000Y74250000D01*
X40614213Y74250000D02*
X37900000Y74250000D01*
X42450000Y72414213D02*
X40614213Y74250000D01*
X42450000Y71000000D02*
X42450000Y72414213D01*
X42440000Y62160000D02*
X42450000Y62150000D01*
X38840000Y62160000D02*
X42440000Y62160000D01*
X48800000Y13650000D02*
X43500000Y8350000D01*
X50250000Y13650000D02*
X48800000Y13650000D01*
X23490000Y49350000D02*
X23600000Y49460000D01*
X14500000Y49350000D02*
X23490000Y49350000D01*
X22185787Y54540000D02*
X23600000Y54540000D01*
X19850000Y56875787D02*
X22185787Y54540000D01*
X19850000Y60564213D02*
X19850000Y56875787D01*
X18364213Y62050000D02*
X19850000Y60564213D01*
X16950000Y62050000D02*
X18364213Y62050000D01*
X38240000Y51400000D02*
X38840000Y52000000D01*
X33050000Y51400000D02*
X38240000Y51400000D01*
X23410000Y41650000D02*
X23600000Y41840000D01*
X19650000Y41650000D02*
X23410000Y41650000D01*
X50550000Y50550000D02*
X50700000Y50700000D01*
X50550000Y44600000D02*
X50550000Y50550000D01*
M02*
