M48
; DRILL file {KiCad (5.1.4)-1} date 4/19/2021 9:57:31 AM
; FORMAT={-:-/ absolute / metric / decimal}
; #@! TF.CreationDate,2021-04-19T09:57:31-05:00
; #@! TF.GenerationSoftware,Kicad,Pcbnew,(5.1.4)-1
; #@! TF.FileFunction,Plated,1,2,PTH
FMAT,2
METRIC
T1C0.800
T2C1.000
T3C1.300
T4C1.520
T5C2.800
%
G90
G05
T1
X8.6Y47.1
X14.5Y49.35
X16.95Y62.05
X17.05Y30.3
X19.65Y41.65
X23.55Y66.75
X26.95Y63.75
X27.1Y59.1
X30.3Y74.25
X31.8Y34.25
X33.05Y51.4
X34.1Y41.95
X34.5Y26.95
X35.7Y44.35
X42.0Y14.4
X42.45Y71.0
X42.45Y62.15
X42.6Y35.65
X43.5Y8.35
X44.05Y54.5
X46.25Y74.2
X48.45Y35.65
X50.7Y50.7
X51.25Y68.9
X10.65Y76.55
X10.65Y72.05
X17.15Y76.55
X17.15Y72.05
X23.6Y62.16
X23.6Y59.62
X23.6Y57.08
X23.6Y54.54
X23.6Y52.0
X23.6Y49.46
X23.6Y46.92
X23.6Y44.38
X23.6Y41.84
X23.6Y39.3
X23.6Y36.76
X23.6Y34.22
X23.6Y31.68
X23.6Y29.14
X23.6Y26.6
X38.84Y62.16
X38.84Y59.62
X38.84Y57.08
X38.84Y54.54
X38.84Y52.0
X38.84Y49.46
X38.84Y46.92
X38.84Y44.38
X38.84Y41.84
X38.84Y39.3
X38.84Y36.76
X38.84Y34.22
X38.84Y31.68
X38.84Y29.14
X38.84Y26.6
X10.55Y39.4
X10.55Y34.9
X17.05Y39.4
X17.05Y34.9
X2.95Y18.2
X2.95Y2.96
X29.4Y3.5
X37.02Y3.5
X48.5Y32.92
X48.5Y30.38
X48.5Y27.84
X48.5Y25.3
X10.55Y58.2
X10.55Y53.7
X17.05Y58.2
X17.05Y53.7
X38.28Y77.5
X40.82Y77.5
X43.36Y77.5
X45.9Y77.5
X25.0Y90.0
X27.54Y90.0
X30.08Y90.0
X32.62Y90.0
X35.16Y90.0
X37.7Y90.0
X3.15Y75.6
X3.15Y60.36
X48.2Y68.87
X48.2Y66.33
X48.2Y63.79
X48.2Y61.25
X10.7Y21.05
X10.7Y16.55
X17.2Y21.05
X17.2Y16.55
X3.2Y57.79
X3.2Y42.55
X3.0Y37.7
X3.0Y22.46
T2
X5.0Y86.4
X10.0Y86.4
T3
X27.75Y13.65
X50.25Y13.65
T4
X50.55Y44.6
X50.55Y39.52
T5
X18.25Y2.65
X18.45Y90.6
X44.4Y90.7
X44.4Y2.6
T0
M30
