G04 #@! TF.GenerationSoftware,KiCad,Pcbnew,(5.1.4)-1*
G04 #@! TF.CreationDate,2021-05-26T08:57:28-05:00*
G04 #@! TF.ProjectId,compactacion,636f6d70-6163-4746-9163-696f6e2e6b69,rev?*
G04 #@! TF.SameCoordinates,Original*
G04 #@! TF.FileFunction,Copper,L2,Bot*
G04 #@! TF.FilePolarity,Positive*
%FSLAX46Y46*%
G04 Gerber Fmt 4.6, Leading zero omitted, Abs format (unit mm)*
G04 Created by KiCad (PCBNEW (5.1.4)-1) date 2021-05-26 08:57:28*
%MOMM*%
%LPD*%
G04 APERTURE LIST*
%ADD10C,2.000000*%
%ADD11C,3.000000*%
%ADD12R,3.000000X3.000000*%
%ADD13R,2.000000X2.000000*%
%ADD14C,5.280000*%
%ADD15C,1.500000*%
G04 APERTURE END LIST*
D10*
X47450000Y55160000D03*
X47450000Y52620000D03*
X47450000Y50080000D03*
X47450000Y47540000D03*
X47450000Y45000000D03*
X47450000Y42460000D03*
X47450000Y39920000D03*
X47450000Y37380000D03*
X47450000Y34840000D03*
X47450000Y32300000D03*
X22050000Y67860000D03*
X22050000Y65320000D03*
X22050000Y57700000D03*
X22050000Y55160000D03*
X22050000Y52620000D03*
X22050000Y50080000D03*
X22050000Y42460000D03*
X22050000Y34840000D03*
X22050000Y32300000D03*
X44650000Y27250000D03*
X42110000Y27250000D03*
X39570000Y27250000D03*
X37030000Y27250000D03*
X22980000Y26850000D03*
X25520000Y26850000D03*
X28060000Y26850000D03*
X30600000Y26850000D03*
D11*
X27750000Y13650000D03*
X50250000Y13650000D03*
D10*
X45900000Y77500000D03*
X43360000Y77500000D03*
X40820000Y77500000D03*
X38280000Y77500000D03*
D12*
X21850000Y10250000D03*
D11*
X16770000Y10250000D03*
D10*
X3200000Y57790000D03*
X3200000Y42550000D03*
X3000000Y37700000D03*
X3000000Y22460000D03*
X2950000Y18200000D03*
X2950000Y2960000D03*
X29400000Y3500000D03*
X37020000Y3500000D03*
D13*
X10000000Y86400000D03*
D10*
X5000000Y86400000D03*
X3150000Y75600000D03*
X3150000Y60360000D03*
X17150000Y76550000D03*
X17150000Y72050000D03*
X10650000Y76550000D03*
X10650000Y72050000D03*
X10550000Y53700000D03*
X10550000Y58200000D03*
X17050000Y53700000D03*
X17050000Y58200000D03*
X10550000Y34900000D03*
X10550000Y39400000D03*
X17050000Y34900000D03*
X17050000Y39400000D03*
X17200000Y21050000D03*
X17200000Y16550000D03*
X10700000Y21050000D03*
X10700000Y16550000D03*
X25000000Y90000000D03*
X27540000Y90000000D03*
X30080000Y90000000D03*
X32620000Y90000000D03*
X35160000Y90000000D03*
X37700000Y90000000D03*
X24500000Y19050000D03*
X27040000Y19050000D03*
X29580000Y19050000D03*
X32120000Y19050000D03*
X34660000Y19050000D03*
X37200000Y19050000D03*
X39740000Y19050000D03*
X42280000Y19050000D03*
X44820000Y19050000D03*
X47360000Y19050000D03*
D14*
X44400000Y2600000D03*
X18250000Y2650000D03*
X18450000Y90600000D03*
X44400000Y90700000D03*
D10*
X31050000Y34050000D03*
X10150000Y46300000D03*
X22000000Y46350000D03*
X28600000Y49700000D03*
X45000000Y39800000D03*
X43000000Y42250000D03*
X43250000Y84200000D03*
X50150000Y77350000D03*
X16600000Y81950000D03*
X15400000Y62800000D03*
X21100000Y76650000D03*
X37200000Y24050000D03*
X37050000Y65150000D03*
X40850000Y57700000D03*
X29900000Y68000000D03*
X27750000Y52450000D03*
X24550000Y55150000D03*
X18050000Y29350000D03*
X24400000Y15600000D03*
X21900000Y6300000D03*
X11100000Y10100000D03*
X35100000Y37350000D03*
X43500000Y8350000D03*
D15*
X16620000Y10100000D02*
X16770000Y10250000D01*
X11100000Y10100000D02*
X16620000Y10100000D01*
X44650000Y32040000D02*
X47450000Y34840000D01*
X44650000Y27250000D02*
X44650000Y32040000D01*
X30600000Y26850000D02*
X30600000Y25435787D01*
X44650000Y25835787D02*
X44650000Y27250000D01*
X20635787Y34840000D02*
X22050000Y34840000D01*
X14100000Y28304213D02*
X20635787Y34840000D01*
X11100000Y10100000D02*
X14100000Y13100000D01*
X14100000Y13100000D02*
X14100000Y28304213D01*
X30600000Y26850000D02*
X30600000Y24350000D01*
X30600000Y24350000D02*
X33000000Y21950000D01*
X33000000Y21950000D02*
X43200000Y21950000D01*
X44650000Y23400000D02*
X44650000Y27250000D01*
X43200000Y21950000D02*
X44650000Y23400000D01*
X50150000Y75935787D02*
X50150000Y77350000D01*
X51100011Y74985776D02*
X50150000Y75935787D01*
X51100011Y37075798D02*
X51100011Y74985776D01*
X48864213Y34840000D02*
X51100011Y37075798D01*
X47450000Y34840000D02*
X48864213Y34840000D01*
X47330000Y39800000D02*
X47450000Y39920000D01*
X45000000Y39800000D02*
X47330000Y39800000D01*
X47240000Y42250000D02*
X47450000Y42460000D01*
X43000000Y42250000D02*
X47240000Y42250000D01*
X22050000Y57700000D02*
X37100000Y57700000D01*
X37100000Y57700000D02*
X40850000Y57700000D01*
X28060000Y44070000D02*
X22050000Y50080000D01*
X28060000Y26850000D02*
X28060000Y44070000D01*
X22050000Y65320000D02*
X25530000Y65320000D01*
X36880000Y65320000D02*
X37050000Y65150000D01*
X22050000Y65320000D02*
X36880000Y65320000D01*
X47420000Y37350000D02*
X47450000Y37380000D01*
X35100000Y37350000D02*
X47420000Y37350000D01*
X22050000Y67860000D02*
X25060000Y67860000D01*
X29760000Y67860000D02*
X29900000Y68000000D01*
X22050000Y67860000D02*
X29760000Y67860000D01*
X22985787Y15600000D02*
X21450000Y17135787D01*
X24400000Y15600000D02*
X22985787Y15600000D01*
X21450000Y25320000D02*
X22980000Y26850000D01*
X21450000Y17135787D02*
X21450000Y25320000D01*
X37030000Y24220000D02*
X37200000Y24050000D01*
X37030000Y27250000D02*
X37030000Y24220000D01*
X48864213Y32300000D02*
X47450000Y32300000D01*
X52800021Y36235808D02*
X48864213Y32300000D01*
X52800021Y77585981D02*
X52800021Y36235808D01*
X46186002Y84200000D02*
X52800021Y77585981D01*
X43250000Y84200000D02*
X46186002Y84200000D01*
X49310001Y18113999D02*
X48096002Y16900000D01*
X49310001Y19986001D02*
X49310001Y18113999D01*
X47450000Y32300000D02*
X47450000Y21846002D01*
X47450000Y21846002D02*
X49310001Y19986001D01*
X25700000Y16900000D02*
X24400000Y15600000D01*
X48096002Y16900000D02*
X25700000Y16900000D01*
X25800000Y15600000D02*
X27750000Y13650000D01*
X24400000Y15600000D02*
X25800000Y15600000D01*
X24540000Y55160000D02*
X24550000Y55150000D01*
X22050000Y55160000D02*
X24540000Y55160000D01*
X22050000Y52620000D02*
X24980000Y52620000D01*
X27580000Y52620000D02*
X27750000Y52450000D01*
X22050000Y52620000D02*
X27580000Y52620000D01*
X48800000Y13650000D02*
X43500000Y8350000D01*
X50250000Y13650000D02*
X48800000Y13650000D01*
X21850000Y6350000D02*
X21900000Y6300000D01*
X21850000Y10250000D02*
X21850000Y6350000D01*
X48864213Y45000000D02*
X47450000Y45000000D01*
X49400001Y45535788D02*
X48864213Y45000000D01*
X49400001Y60449999D02*
X49400001Y45535788D01*
X28899999Y80950001D02*
X49400001Y60449999D01*
X16600000Y81950000D02*
X17599999Y80950001D01*
X17599999Y80950001D02*
X28899999Y80950001D01*
X25520000Y38990000D02*
X22050000Y42460000D01*
X25520000Y26850000D02*
X25520000Y38990000D01*
X22514213Y76650000D02*
X21100000Y76650000D01*
X28436002Y76650000D02*
X22514213Y76650000D01*
X46450001Y58636001D02*
X28436002Y76650000D01*
X46450001Y56159999D02*
X46450001Y58636001D01*
X47450000Y55160000D02*
X46450001Y56159999D01*
X42800001Y58636001D02*
X38686002Y62750000D01*
X42800001Y55855786D02*
X42800001Y58636001D01*
X47450000Y52620000D02*
X46035787Y52620000D01*
X46035787Y52620000D02*
X42800001Y55855786D01*
X38686002Y62750000D02*
X17550000Y62750000D01*
X17500000Y62800000D02*
X17550000Y62750000D01*
X15400000Y62800000D02*
X17500000Y62800000D01*
X47070000Y49700000D02*
X47450000Y50080000D01*
X28600000Y49700000D02*
X47070000Y49700000D01*
X10200000Y46350000D02*
X10150000Y46300000D01*
X22000000Y46350000D02*
X10200000Y46350000D01*
X46035787Y47540000D02*
X47450000Y47540000D01*
X42403998Y47540000D02*
X46035787Y47540000D01*
X31050000Y36186002D02*
X42403998Y47540000D01*
X31050000Y34050000D02*
X31050000Y36186002D01*
X21000000Y32300000D02*
X18050000Y29350000D01*
X22050000Y32300000D02*
X21000000Y32300000D01*
M02*
