M48
; DRILL file {KiCad (5.1.4)-1} date 5/26/2021 8:57:32 AM
; FORMAT={-:-/ absolute / metric / decimal}
; #@! TF.CreationDate,2021-05-26T08:57:32-05:00
; #@! TF.GenerationSoftware,Kicad,Pcbnew,(5.1.4)-1
; #@! TF.FileFunction,Plated,1,2,PTH
FMAT,2
METRIC
T1C0.800
T2C1.000
T3C1.300
T4C1.520
T5C2.800
%
G90
G05
T1
X10.15Y46.3
X11.1Y10.1
X15.4Y62.8
X16.6Y81.95
X18.05Y29.35
X21.1Y76.65
X21.9Y6.3
X22.0Y46.35
X24.4Y15.6
X24.55Y55.15
X27.75Y52.45
X28.6Y49.7
X29.9Y68.0
X31.05Y34.05
X35.1Y37.35
X37.05Y65.15
X37.2Y24.05
X40.85Y57.7
X43.0Y42.25
X43.25Y84.2
X43.5Y8.35
X45.0Y39.8
X50.15Y77.35
X2.95Y18.2
X2.95Y2.96
X10.65Y76.55
X10.65Y72.05
X17.15Y76.55
X17.15Y72.05
X24.5Y19.05
X27.04Y19.05
X29.58Y19.05
X32.12Y19.05
X34.66Y19.05
X37.2Y19.05
X39.74Y19.05
X42.28Y19.05
X44.82Y19.05
X47.36Y19.05
X3.0Y37.7
X3.0Y22.46
X37.03Y27.25
X39.57Y27.25
X42.11Y27.25
X44.65Y27.25
X10.7Y21.05
X10.7Y16.55
X17.2Y21.05
X17.2Y16.55
X22.98Y26.85
X25.52Y26.85
X28.06Y26.85
X30.6Y26.85
X3.15Y75.6
X3.15Y60.36
X3.2Y57.79
X3.2Y42.55
X10.55Y58.2
X10.55Y53.7
X17.05Y58.2
X17.05Y53.7
X10.55Y39.4
X10.55Y34.9
X17.05Y39.4
X17.05Y34.9
X25.0Y90.0
X27.54Y90.0
X30.08Y90.0
X32.62Y90.0
X35.16Y90.0
X37.7Y90.0
X38.28Y77.5
X40.82Y77.5
X43.36Y77.5
X45.9Y77.5
X29.4Y3.5
X37.02Y3.5
X22.05Y67.86
X22.05Y65.32
X22.05Y57.7
X22.05Y55.16
X22.05Y52.62
X22.05Y50.08
X22.05Y42.46
X22.05Y34.84
X22.05Y32.3
X47.45Y55.16
X47.45Y52.62
X47.45Y50.08
X47.45Y47.54
X47.45Y45.0
X47.45Y42.46
X47.45Y39.92
X47.45Y37.38
X47.45Y34.84
X47.45Y32.3
T2
X5.0Y86.4
X10.0Y86.4
T3
X27.75Y13.65
X50.25Y13.65
T4
X16.77Y10.25
X21.85Y10.25
T5
X18.25Y2.65
X18.45Y90.6
X44.4Y90.7
X44.4Y2.6
T0
M30
