G04 #@! TF.GenerationSoftware,KiCad,Pcbnew,(5.1.4)-1*
G04 #@! TF.CreationDate,2021-05-26T08:57:28-05:00*
G04 #@! TF.ProjectId,compactacion,636f6d70-6163-4746-9163-696f6e2e6b69,rev?*
G04 #@! TF.SameCoordinates,Original*
G04 #@! TF.FileFunction,Copper,L1,Top*
G04 #@! TF.FilePolarity,Positive*
%FSLAX46Y46*%
G04 Gerber Fmt 4.6, Leading zero omitted, Abs format (unit mm)*
G04 Created by KiCad (PCBNEW (5.1.4)-1) date 2021-05-26 08:57:28*
%MOMM*%
%LPD*%
G04 APERTURE LIST*
%ADD10C,2.000000*%
%ADD11C,3.000000*%
%ADD12R,3.000000X3.000000*%
%ADD13R,2.000000X2.000000*%
%ADD14C,5.280000*%
%ADD15C,1.500000*%
G04 APERTURE END LIST*
D10*
X47450000Y55160000D03*
X47450000Y52620000D03*
X47450000Y50080000D03*
X47450000Y47540000D03*
X47450000Y45000000D03*
X47450000Y42460000D03*
X47450000Y39920000D03*
X47450000Y37380000D03*
X47450000Y34840000D03*
X47450000Y32300000D03*
X22050000Y67860000D03*
X22050000Y65320000D03*
X22050000Y57700000D03*
X22050000Y55160000D03*
X22050000Y52620000D03*
X22050000Y50080000D03*
X22050000Y42460000D03*
X22050000Y34840000D03*
X22050000Y32300000D03*
X44650000Y27250000D03*
X42110000Y27250000D03*
X39570000Y27250000D03*
X37030000Y27250000D03*
X22980000Y26850000D03*
X25520000Y26850000D03*
X28060000Y26850000D03*
X30600000Y26850000D03*
D11*
X27750000Y13650000D03*
X50250000Y13650000D03*
D10*
X45900000Y77500000D03*
X43360000Y77500000D03*
X40820000Y77500000D03*
X38280000Y77500000D03*
D12*
X21850000Y10250000D03*
D11*
X16770000Y10250000D03*
D10*
X3200000Y57790000D03*
X3200000Y42550000D03*
X3000000Y37700000D03*
X3000000Y22460000D03*
X2950000Y18200000D03*
X2950000Y2960000D03*
X29400000Y3500000D03*
X37020000Y3500000D03*
D13*
X10000000Y86400000D03*
D10*
X5000000Y86400000D03*
X3150000Y75600000D03*
X3150000Y60360000D03*
X17150000Y76550000D03*
X17150000Y72050000D03*
X10650000Y76550000D03*
X10650000Y72050000D03*
X10550000Y53700000D03*
X10550000Y58200000D03*
X17050000Y53700000D03*
X17050000Y58200000D03*
X10550000Y34900000D03*
X10550000Y39400000D03*
X17050000Y34900000D03*
X17050000Y39400000D03*
X17200000Y21050000D03*
X17200000Y16550000D03*
X10700000Y21050000D03*
X10700000Y16550000D03*
X25000000Y90000000D03*
X27540000Y90000000D03*
X30080000Y90000000D03*
X32620000Y90000000D03*
X35160000Y90000000D03*
X37700000Y90000000D03*
X24500000Y19050000D03*
X27040000Y19050000D03*
X29580000Y19050000D03*
X32120000Y19050000D03*
X34660000Y19050000D03*
X37200000Y19050000D03*
X39740000Y19050000D03*
X42280000Y19050000D03*
X44820000Y19050000D03*
X47360000Y19050000D03*
D14*
X44400000Y2600000D03*
X18250000Y2650000D03*
X18450000Y90600000D03*
X44400000Y90700000D03*
D10*
X31050000Y34050000D03*
X10150000Y46300000D03*
X22000000Y46350000D03*
X28600000Y49700000D03*
X45000000Y39800000D03*
X43000000Y42250000D03*
X43250000Y84200000D03*
X50150000Y77350000D03*
X16600000Y81950000D03*
X15400000Y62800000D03*
X21100000Y76650000D03*
X37200000Y24050000D03*
X37050000Y65150000D03*
X40850000Y57700000D03*
X29900000Y68000000D03*
X27750000Y52450000D03*
X24550000Y55150000D03*
X18050000Y29350000D03*
X24400000Y15600000D03*
X21900000Y6300000D03*
X11100000Y10100000D03*
X35100000Y37350000D03*
X43500000Y8350000D03*
D15*
X2950000Y22410000D02*
X3000000Y22460000D01*
X2950000Y18200000D02*
X2950000Y22410000D01*
X3200000Y60310000D02*
X3150000Y60360000D01*
X3200000Y57790000D02*
X3200000Y60310000D01*
X2400001Y56990001D02*
X3200000Y57790000D01*
X1249999Y55839999D02*
X2400001Y56990001D01*
X3000000Y22460000D02*
X3000000Y35109998D01*
X46050000Y77350000D02*
X45900000Y77500000D01*
X2200001Y56790001D02*
X3200000Y57790000D01*
X1049999Y55639999D02*
X2200001Y56790001D01*
X1049999Y36763999D02*
X1049999Y55639999D01*
X2704000Y35109998D02*
X1049999Y36763999D01*
X3000000Y35109998D02*
X2704000Y35109998D01*
X25000000Y90000000D02*
X25300000Y90000000D01*
X2013999Y1009999D02*
X6959999Y1009999D01*
X999999Y2023999D02*
X2013999Y1009999D01*
X999999Y13854176D02*
X999999Y2023999D01*
X2950000Y18200000D02*
X2950000Y15804177D01*
X2950000Y15804177D02*
X999999Y13854176D01*
X6959999Y4545786D02*
X6959999Y1009999D01*
X11100000Y8685787D02*
X6959999Y4545786D01*
X11100000Y10100000D02*
X11100000Y8685787D01*
X23563999Y21000001D02*
X19800000Y17236002D01*
X26504212Y21000001D02*
X23563999Y21000001D01*
X27040000Y19050000D02*
X27040000Y20464213D01*
X27040000Y20464213D02*
X26504212Y21000001D01*
X19800000Y17236002D02*
X19800000Y15050000D01*
X19800000Y15050000D02*
X17900000Y13150000D01*
X14150000Y13150000D02*
X11100000Y10100000D01*
X17900000Y13150000D02*
X14150000Y13150000D01*
X5999999Y87399999D02*
X5000000Y86400000D01*
X2150001Y61359999D02*
X3150000Y60360000D01*
X1199999Y62310001D02*
X2150001Y61359999D01*
X1199999Y82599999D02*
X1199999Y62310001D01*
X5000000Y86400000D02*
X1199999Y82599999D01*
X50000000Y77500000D02*
X50150000Y77350000D01*
X45900000Y77500000D02*
X50000000Y77500000D01*
X34660000Y17635787D02*
X34660000Y19050000D01*
X34124212Y17099999D02*
X34660000Y17635787D01*
X28643999Y17099999D02*
X34124212Y17099999D01*
X27629999Y18113999D02*
X28643999Y17099999D01*
X27629999Y18520001D02*
X27629999Y18113999D01*
X27100000Y19050000D02*
X27629999Y18520001D01*
X27040000Y19050000D02*
X27100000Y19050000D01*
X24000001Y89000001D02*
X25000000Y90000000D01*
X22009999Y87009999D02*
X24000001Y89000001D01*
X16726799Y87009999D02*
X22009999Y87009999D01*
X15386797Y88350001D02*
X16726799Y87009999D01*
X6950001Y88350001D02*
X15386797Y88350001D01*
X5000000Y86400000D02*
X6950001Y88350001D01*
X45000000Y31554213D02*
X45000000Y39800000D01*
X42110000Y27250000D02*
X42110000Y28664213D01*
X42110000Y28664213D02*
X45000000Y31554213D01*
X39570000Y28664213D02*
X39570000Y27250000D01*
X39570000Y31465823D02*
X39570000Y28664213D01*
X43000000Y34895823D02*
X39570000Y31465823D01*
X43000000Y42250000D02*
X43000000Y34895823D01*
X40820000Y61420000D02*
X40820000Y77500000D01*
X32120000Y20464213D02*
X35079999Y23424212D01*
X32120000Y19050000D02*
X32120000Y20464213D01*
X40820000Y59144213D02*
X40820000Y61420000D01*
X40850000Y59114213D02*
X40820000Y59144213D01*
X40850000Y57700000D02*
X40850000Y59114213D01*
X35079999Y23424212D02*
X35079999Y29379999D01*
X40850000Y35150000D02*
X40850000Y57700000D01*
X35079999Y29379999D02*
X40850000Y35150000D01*
X38280000Y66380000D02*
X37050000Y65150000D01*
X38280000Y77500000D02*
X38280000Y66380000D01*
X37050000Y63735787D02*
X37050000Y65150000D01*
X37050000Y34350000D02*
X37050000Y63735787D01*
X33379989Y26279989D02*
X33379989Y30679989D01*
X30169999Y23069999D02*
X33379989Y26279989D01*
X30169999Y19519999D02*
X30169999Y23069999D01*
X29700000Y19050000D02*
X30169999Y19519999D01*
X33379989Y30679989D02*
X37050000Y34350000D01*
X29580000Y19050000D02*
X29700000Y19050000D01*
X35160000Y90000000D02*
X35160000Y45040000D01*
X35100000Y44980000D02*
X35100000Y37350000D01*
X35160000Y45040000D02*
X35100000Y44980000D01*
X32620000Y90000000D02*
X32620000Y72070000D01*
X32620000Y70720000D02*
X32620000Y72070000D01*
X29900000Y68000000D02*
X32620000Y70720000D01*
X24400000Y18950000D02*
X24500000Y19050000D01*
X24400000Y15600000D02*
X24400000Y18950000D01*
X39740000Y17847919D02*
X39740000Y19050000D01*
X39740000Y21510000D02*
X37200000Y24050000D01*
X39740000Y19050000D02*
X39740000Y21510000D01*
X37700000Y89750000D02*
X43250000Y84200000D01*
X37700000Y90000000D02*
X37700000Y89750000D01*
X43360000Y84090000D02*
X43250000Y84200000D01*
X43360000Y77500000D02*
X43360000Y84090000D01*
X39740000Y17635787D02*
X32004213Y9900000D01*
X39740000Y19050000D02*
X39740000Y17635787D01*
X32004213Y9900000D02*
X26200000Y9900000D01*
X24400000Y11700000D02*
X24400000Y15600000D01*
X26200000Y9900000D02*
X24400000Y11700000D01*
X24550000Y56564213D02*
X24550000Y55150000D01*
X24550000Y67940179D02*
X24550000Y56564213D01*
X27540000Y70930179D02*
X24550000Y67940179D01*
X27540000Y90000000D02*
X27540000Y70930179D01*
X27750000Y53864213D02*
X27750000Y52450000D01*
X27750000Y68736002D02*
X27750000Y53864213D01*
X30080000Y71066002D02*
X27750000Y68736002D01*
X30080000Y90000000D02*
X30080000Y71066002D01*
X9550001Y57200001D02*
X10550000Y58200000D01*
X3999999Y51649999D02*
X9550001Y57200001D01*
X3999999Y43349999D02*
X3999999Y51649999D01*
X3200000Y42550000D02*
X3999999Y43349999D01*
X10550000Y58200000D02*
X17050000Y58200000D01*
X10550000Y53700000D02*
X17050000Y53700000D01*
X10650000Y72050000D02*
X17150000Y72050000D01*
X18149999Y71050001D02*
X17150000Y72050000D01*
X19050000Y70150000D02*
X18149999Y71050001D01*
X19050000Y55700000D02*
X19050000Y70150000D01*
X17050000Y53700000D02*
X19050000Y55700000D01*
X17000000Y39450000D02*
X10500000Y39450000D01*
X41870000Y8350000D02*
X37020000Y3500000D01*
X43500000Y8350000D02*
X41870000Y8350000D01*
X26600000Y6300000D02*
X29400000Y3500000D01*
X21900000Y6300000D02*
X26600000Y6300000D01*
X12150000Y86400000D02*
X16600000Y81950000D01*
X10000000Y86400000D02*
X12150000Y86400000D01*
X10500000Y34950000D02*
X17000000Y34950000D01*
X7750000Y37700000D02*
X10550000Y34900000D01*
X3000000Y37700000D02*
X7750000Y37700000D01*
X9700000Y75600000D02*
X10650000Y76550000D01*
X3150000Y75600000D02*
X9700000Y75600000D01*
X10650000Y76550000D02*
X17500000Y76550000D01*
X21000000Y76550000D02*
X21100000Y76650000D01*
X17150000Y76550000D02*
X21000000Y76550000D01*
X15400000Y59850000D02*
X17050000Y58200000D01*
X15400000Y62800000D02*
X15400000Y59850000D01*
X25350000Y49700000D02*
X22000000Y46350000D01*
X28600000Y49700000D02*
X25350000Y49700000D01*
X10150000Y44850000D02*
X10150000Y46300000D01*
X3000000Y37700000D02*
X10150000Y44850000D01*
X10650000Y16600000D02*
X17150000Y16600000D01*
X3749999Y3759999D02*
X3749999Y14199999D01*
X2950000Y2960000D02*
X3749999Y3759999D01*
X8349999Y14199999D02*
X10700000Y16550000D01*
X3749999Y14199999D02*
X8349999Y14199999D01*
X17200000Y17964213D02*
X19850000Y20614213D01*
X17200000Y16550000D02*
X17200000Y17964213D01*
X19850000Y27200000D02*
X22150000Y29500000D01*
X19850000Y20614213D02*
X19850000Y27200000D01*
X26700000Y34050000D02*
X19850000Y27200000D01*
X31050000Y34050000D02*
X26700000Y34050000D01*
X17200000Y28500000D02*
X18050000Y29350000D01*
X17200000Y21050000D02*
X17200000Y28500000D01*
X18050000Y30764213D02*
X19600000Y32314213D01*
X18050000Y29350000D02*
X18050000Y30764213D01*
X19600000Y36850000D02*
X17050000Y39400000D01*
X19600000Y32314213D02*
X19600000Y36850000D01*
X17050000Y53700000D02*
X17050000Y39400000D01*
X10700000Y21050000D02*
X17200000Y21050000D01*
M02*
